<svg width="118" height="27" viewBox="0 0 118 27" fill="none" xmlns="http://www.w3.org/2000/svg">
<path d="M31.762 18.002H35.902V20H29.242V7.436H31.762V18.002ZM41.9317 20.162C40.9717 20.162 40.1077 19.952 39.3397 19.532C38.5717 19.1 37.9657 18.494 37.5217 17.714C37.0897 16.934 36.8737 16.034 36.8737 15.014C36.8737 13.994 37.0957 13.094 37.5397 12.314C37.9957 11.534 38.6137 10.934 39.3937 10.514C40.1737 10.082 41.0437 9.866 42.0037 9.866C42.9637 9.866 43.8337 10.082 44.6137 10.514C45.3937 10.934 46.0057 11.534 46.4497 12.314C46.9057 13.094 47.1337 13.994 47.1337 15.014C47.1337 16.034 46.8997 16.934 46.4317 17.714C45.9757 18.494 45.3517 19.1 44.5597 19.532C43.7797 19.952 42.9037 20.162 41.9317 20.162ZM41.9317 17.966C42.3877 17.966 42.8137 17.858 43.2097 17.642C43.6177 17.414 43.9417 17.078 44.1817 16.634C44.4217 16.19 44.5417 15.65 44.5417 15.014C44.5417 14.066 44.2897 13.34 43.7857 12.836C43.2937 12.32 42.6877 12.062 41.9677 12.062C41.2477 12.062 40.6417 12.32 40.1497 12.836C39.6697 13.34 39.4297 14.066 39.4297 15.014C39.4297 15.962 39.6637 16.694 40.1317 17.21C40.6117 17.714 41.2117 17.966 41.9317 17.966ZM52.8882 9.866C53.6322 9.866 54.2862 10.016 54.8502 10.316C55.4142 10.604 55.8582 10.982 56.1822 11.45V10.028H58.7202V20.072C58.7202 20.996 58.5342 21.818 58.1622 22.538C57.7902 23.27 57.2322 23.846 56.4882 24.266C55.7442 24.698 54.8442 24.914 53.7882 24.914C52.3722 24.914 51.2082 24.584 50.2962 23.924C49.3962 23.264 48.8862 22.364 48.7662 21.224H51.2682C51.4002 21.68 51.6822 22.04 52.1142 22.304C52.5582 22.58 53.0922 22.718 53.7162 22.718C54.4482 22.718 55.0422 22.496 55.4982 22.052C55.9542 21.62 56.1822 20.96 56.1822 20.072V18.524C55.8582 18.992 55.4082 19.382 54.8322 19.694C54.2682 20.006 53.6202 20.162 52.8882 20.162C52.0482 20.162 51.2802 19.946 50.5842 19.514C49.8882 19.082 49.3362 18.476 48.9282 17.696C48.5322 16.904 48.3342 15.998 48.3342 14.978C48.3342 13.97 48.5322 13.076 48.9282 12.296C49.3362 11.516 49.8822 10.916 50.5662 10.496C51.2622 10.076 52.0362 9.866 52.8882 9.866ZM56.1822 15.014C56.1822 14.402 56.0622 13.88 55.8222 13.448C55.5822 13.004 55.2582 12.668 54.8502 12.44C54.4422 12.2 54.0042 12.08 53.5362 12.08C53.0682 12.08 52.6362 12.194 52.2402 12.422C51.8442 12.65 51.5202 12.986 51.2682 13.43C51.0282 13.862 50.9082 14.378 50.9082 14.978C50.9082 15.578 51.0282 16.106 51.2682 16.562C51.5202 17.006 51.8442 17.348 52.2402 17.588C52.6482 17.828 53.0802 17.948 53.5362 17.948C54.0042 17.948 54.4422 17.834 54.8502 17.606C55.2582 17.366 55.5822 17.03 55.8222 16.598C56.0622 16.154 56.1822 15.626 56.1822 15.014ZM65.6095 20.162C64.6495 20.162 63.7855 19.952 63.0175 19.532C62.2495 19.1 61.6435 18.494 61.1995 17.714C60.7675 16.934 60.5515 16.034 60.5515 15.014C60.5515 13.994 60.7735 13.094 61.2175 12.314C61.6735 11.534 62.2915 10.934 63.0715 10.514C63.8515 10.082 64.7215 9.866 65.6815 9.866C66.6415 9.866 67.5115 10.082 68.2915 10.514C69.0715 10.934 69.6835 11.534 70.1275 12.314C70.5835 13.094 70.8115 13.994 70.8115 15.014C70.8115 16.034 70.5775 16.934 70.1095 17.714C69.6535 18.494 69.0295 19.1 68.2375 19.532C67.4575 19.952 66.5815 20.162 65.6095 20.162ZM65.6095 17.966C66.0655 17.966 66.4915 17.858 66.8875 17.642C67.2955 17.414 67.6195 17.078 67.8595 16.634C68.0995 16.19 68.2195 15.65 68.2195 15.014C68.2195 14.066 67.9675 13.34 67.4635 12.836C66.9715 12.32 66.3655 12.062 65.6455 12.062C64.9255 12.062 64.3195 12.32 63.8275 12.836C63.3475 13.34 63.1075 14.066 63.1075 15.014C63.1075 15.962 63.3415 16.694 63.8095 17.21C64.2895 17.714 64.8895 17.966 65.6095 17.966ZM82.565 9.884C83.321 9.884 83.993 10.052 84.581 10.388C85.169 10.712 85.625 11.198 85.949 11.846C86.285 12.482 86.453 13.25 86.453 14.15V20H83.933V14.492C83.933 13.7 83.735 13.094 83.339 12.674C82.943 12.242 82.403 12.026 81.719 12.026C81.023 12.026 80.471 12.242 80.063 12.674C79.667 13.094 79.469 13.7 79.469 14.492V20H76.949V6.68H79.469V11.27C79.793 10.838 80.225 10.502 80.765 10.262C81.305 10.01 81.905 9.884 82.565 9.884ZM98.1194 14.798C98.1194 15.158 98.0954 15.482 98.0474 15.77H90.7574C90.8174 16.49 91.0694 17.054 91.5134 17.462C91.9574 17.87 92.5034 18.074 93.1514 18.074C94.0874 18.074 94.7534 17.672 95.1494 16.868H97.8674C97.5794 17.828 97.0274 18.62 96.2114 19.244C95.3954 19.856 94.3934 20.162 93.2054 20.162C92.2454 20.162 91.3814 19.952 90.6134 19.532C89.8574 19.1 89.2634 18.494 88.8314 17.714C88.4114 16.934 88.2014 16.034 88.2014 15.014C88.2014 13.982 88.4114 13.076 88.8314 12.296C89.2514 11.516 89.8394 10.916 90.5954 10.496C91.3514 10.076 92.2214 9.866 93.2054 9.866C94.1534 9.866 94.9994 10.07 95.7434 10.478C96.4994 10.886 97.0814 11.468 97.4894 12.224C97.9094 12.968 98.1194 13.826 98.1194 14.798ZM95.5094 14.078C95.4974 13.43 95.2634 12.914 94.8074 12.53C94.3514 12.134 93.7934 11.936 93.1334 11.936C92.5094 11.936 91.9814 12.128 91.5494 12.512C91.1294 12.884 90.8714 13.406 90.7754 14.078H95.5094ZM102.479 11.576C102.803 11.048 103.223 10.634 103.739 10.334C104.267 10.034 104.867 9.884 105.539 9.884V12.53H104.873C104.081 12.53 103.481 12.716 103.073 13.088C102.677 13.46 102.479 14.108 102.479 15.032V20H99.9588V10.028H102.479V11.576ZM116.506 14.798C116.506 15.158 116.482 15.482 116.434 15.77H109.144C109.204 16.49 109.456 17.054 109.9 17.462C110.344 17.87 110.89 18.074 111.538 18.074C112.474 18.074 113.14 17.672 113.536 16.868H116.254C115.966 17.828 115.414 18.62 114.598 19.244C113.782 19.856 112.78 20.162 111.592 20.162C110.632 20.162 109.768 19.952 109 19.532C108.244 19.1 107.65 18.494 107.218 17.714C106.798 16.934 106.588 16.034 106.588 15.014C106.588 13.982 106.798 13.076 107.218 12.296C107.638 11.516 108.226 10.916 108.982 10.496C109.738 10.076 110.608 9.866 111.592 9.866C112.54 9.866 113.386 10.07 114.13 10.478C114.886 10.886 115.468 11.468 115.876 12.224C116.296 12.968 116.506 13.826 116.506 14.798ZM113.896 14.078C113.884 13.43 113.65 12.914 113.194 12.53C112.738 12.134 112.18 11.936 111.52 11.936C110.896 11.936 110.368 12.128 109.936 12.512C109.516 12.884 109.258 13.406 109.162 14.078H113.896Z" fill="#232323"/>
<path d="M9.1071 6.448C9.7051 4.698 12.1231 4.645 12.8321 6.289L12.8921 6.449L13.6991 8.809C13.884 9.35023 14.1829 9.84551 14.5755 10.2614C14.9682 10.6773 15.4454 11.0042 15.9751 11.22L16.1921 11.301L18.5521 12.107C20.3021 12.705 20.3551 15.123 18.7121 15.832L18.5521 15.892L16.1921 16.699C15.6507 16.8838 15.1552 17.1826 14.7391 17.5753C14.323 17.9679 13.996 18.4452 13.7801 18.975L13.6991 19.191L12.8931 21.552C12.2951 23.302 9.8771 23.355 9.1691 21.712L9.1071 21.552L8.3011 19.192C8.11628 18.6506 7.81748 18.1551 7.42485 17.739C7.03222 17.3229 6.5549 16.9959 6.0251 16.78L5.8091 16.699L3.4491 15.893C1.6981 15.295 1.6451 12.877 3.2891 12.169L3.4491 12.107L5.8091 11.301C6.35034 11.1161 6.84562 10.8172 7.26153 10.4246C7.67744 10.0319 8.00432 9.55469 8.2201 9.025L8.3011 8.809L9.1071 6.448ZM11.0001 7.094L10.1941 9.454C9.9125 10.2793 9.45437 11.0333 8.85164 11.6635C8.24891 12.2937 7.51605 12.7849 6.7041 13.103L6.4541 13.194L4.0941 14L6.4541 14.806C7.27941 15.0876 8.03341 15.5457 8.6636 16.1485C9.29379 16.7512 9.78503 17.4841 10.1031 18.296L10.1941 18.546L11.0001 20.906L11.8061 18.546C12.0877 17.7207 12.5458 16.9667 13.1486 16.3365C13.7513 15.7063 14.4842 15.2151 15.2961 14.897L15.5461 14.807L17.9061 14L15.5461 13.194C14.7208 12.9124 13.9668 12.4543 13.3366 11.8515C12.7064 11.2488 12.2152 10.5159 11.8971 9.704L11.8071 9.454L11.0001 7.094ZM19.0001 3C19.1872 3 19.3705 3.05248 19.5293 3.15147C19.688 3.25046 19.8158 3.392 19.8981 3.56L19.9461 3.677L20.2961 4.703L21.3231 5.053C21.5106 5.1167 21.6749 5.23462 21.7953 5.39182C21.9157 5.54902 21.9867 5.73842 21.9994 5.93602C22.012 6.13362 21.9657 6.33053 21.8663 6.50179C21.7669 6.67304 21.6189 6.81094 21.4411 6.898L21.3231 6.946L20.2971 7.296L19.9471 8.323C19.8833 8.51043 19.7653 8.6747 19.608 8.79499C19.4508 8.91529 19.2613 8.98619 19.0637 8.99872C18.8661 9.01125 18.6693 8.96484 18.4981 8.86538C18.3269 8.76591 18.1891 8.61787 18.1021 8.44L18.0541 8.323L17.7041 7.297L16.6771 6.947C16.4896 6.8833 16.3253 6.76538 16.2049 6.60819C16.0845 6.45099 16.0135 6.26158 16.0008 6.06398C15.9882 5.86638 16.0345 5.66947 16.1339 5.49821C16.2333 5.32696 16.3813 5.18906 16.5591 5.102L16.6771 5.054L17.7031 4.704L18.0531 3.677C18.1205 3.47943 18.2481 3.30791 18.4179 3.1865C18.5878 3.06509 18.7913 2.99987 19.0001 3Z" fill="#0C7FDA"/>
</svg>
