<svg width="20" height="20" viewBox="0 0 20 20" fill="none" xmlns="http://www.w3.org/2000/svg">
<path d="M0.833496 16.4533L2.66683 15.1948V4.80526L4.80541 2.66668H15.4387L17.3335 4.80526L18.4821 4.11501C18.5252 4.08737 18.5616 4.05048 18.5888 4.00702C18.6159 3.96357 18.633 3.91463 18.6389 3.86374C18.6447 3.81286 18.6392 3.7613 18.6227 3.71281C18.6062 3.66432 18.5792 3.62009 18.5435 3.58335L15.9887 0.931429C15.9274 0.869366 15.8441 0.834101 15.7568 0.833345H3.9135C3.87022 0.833209 3.82737 0.841828 3.78751 0.858684C3.74766 0.87554 3.71162 0.900284 3.68158 0.931429L0.93158 3.79143C0.868799 3.85487 0.833557 3.94051 0.833496 4.02976V16.4533Z" fill="url(#paint0_linear_91_856)"/>
<path d="M4.80649 2.66669L2.66699 4.80527V15.2369L4.80649 17.3334H15.1951L17.3337 15.1948V4.7631L15.5003 2.66669H4.80649Z" fill="#E1E7CD"/>
<path d="M18.8368 9.65808H17.3335V15.0967L15.1949 17.3333H4.80541L2.66683 15.1947L0.833496 16.4533L3.35708 19.0686C3.4185 19.13 3.50375 19.1667 3.58991 19.1667H15.7568C15.8421 19.1667 15.9282 19.13 15.9887 19.0686L19.0687 15.8731C19.1307 15.8065 19.1656 15.7193 19.1668 15.6283V10C19.1676 9.91114 19.1334 9.82553 19.0717 9.76159C19.01 9.69765 18.9257 9.66048 18.8368 9.65808Z" fill="url(#paint1_linear_91_856)"/>
<path d="M7.55636 12.4448C7.88055 12.4448 8.19147 12.316 8.42071 12.0867C8.64995 11.8575 8.77873 11.5466 8.77873 11.2224C8.77873 10.8982 8.64995 10.5873 8.42071 10.358C8.19147 10.1288 7.88055 10 7.55636 10C7.23217 10 6.92125 10.1288 6.69201 10.358C6.46277 10.5873 6.33398 10.8982 6.33398 11.2224C6.33398 11.5466 6.46277 11.8575 6.69201 12.0867C6.92125 12.316 7.23217 12.4448 7.55636 12.4448ZM12.4449 12.4448C12.6083 12.4492 12.7709 12.4209 12.9231 12.3615C13.0753 12.3021 13.2141 12.2128 13.3312 12.0988C13.4483 11.9849 13.5414 11.8486 13.6049 11.6981C13.6685 11.5475 13.7013 11.3858 13.7013 11.2224C13.7013 11.059 13.6685 10.8972 13.6049 10.7467C13.5414 10.5962 13.4483 10.4599 13.3312 10.3459C13.2141 10.232 13.0753 10.1427 12.9231 10.0833C12.7709 10.0238 12.6083 9.99553 12.4449 10C12.1265 10.0087 11.8241 10.1413 11.602 10.3696C11.3799 10.5979 11.2556 10.9039 11.2556 11.2224C11.2556 11.5409 11.3799 11.8468 11.602 12.0751C11.8241 12.3034 12.1265 12.436 12.4449 12.4448Z" fill="#1A1A24"/>
<defs>
<linearGradient id="paint0_linear_91_856" x1="18.3611" y1="2.8271" x2="-0.0593385" y2="14.5888" gradientUnits="userSpaceOnUse">
<stop stop-color="#684BFD"/>
<stop offset="0.28" stop-color="#4663E9"/>
<stop offset="0.52" stop-color="#4380E8"/>
<stop offset="0.84" stop-color="#17DAC6"/>
<stop offset="1" stop-color="#18D6C9"/>
</linearGradient>
<linearGradient id="paint1_linear_91_856" x1="18.5132" y1="1.49333" x2="0.301829" y2="6.14358" gradientUnits="userSpaceOnUse">
<stop stop-color="#F17165"/>
<stop offset="0.25" stop-color="#F19C5C"/>
<stop offset="0.47" stop-color="#E9BE4D"/>
<stop offset="1" stop-color="#E7C653"/>
</linearGradient>
</defs>
</svg>
