<svg width="16" height="16" viewBox="0 0 11 10" fill="none" xmlns="http://www.w3.org/2000/svg">
<path d="M5.54545 10C5.40079 10 5.26205 9.94732 5.15976 9.85355C5.05747 9.75979 5 9.63261 5 9.5C5 8.96957 5.22987 8.46086 5.63904 8.08579C6.04821 7.71071 6.60316 7.5 7.18182 7.5H9.90909V1H7.18182C6.89249 1 6.61501 1.10536 6.41043 1.29289C6.20584 1.48043 6.09091 1.73478 6.09091 2V6.5C6.09091 6.63261 6.03344 6.75979 5.93115 6.85355C5.82886 6.94732 5.69012 7 5.54545 7C5.40079 7 5.26205 6.94732 5.15976 6.85355C5.05747 6.75979 5 6.63261 5 6.5V2C5 1.46957 5.22987 0.960859 5.63904 0.585786C6.04821 0.210714 6.60316 0 7.18182 0H10.4545C10.5992 0 10.7379 0.0526784 10.8402 0.146447C10.9425 0.240215 11 0.367392 11 0.5V8C11 8.13261 10.9425 8.25979 10.8402 8.35355C10.7379 8.44732 10.5992 8.5 10.4545 8.5H7.18182C6.89249 8.5 6.61501 8.60536 6.41043 8.79289C6.20584 8.98043 6.09091 9.23478 6.09091 9.5C6.09091 9.63261 6.03344 9.75979 5.93115 9.85355C5.82886 9.94732 5.69012 10 5.54545 10Z" fill="#232323"/>
<path d="M5.45455 10C5.30988 10 5.17114 9.94732 5.06885 9.85355C4.96656 9.75979 4.90909 9.63261 4.90909 9.5C4.90909 9.23478 4.79416 8.98043 4.58957 8.79289C4.38499 8.60536 4.10751 8.5 3.81818 8.5H0.545455C0.400791 8.5 0.262052 8.44732 0.15976 8.35355C0.0574673 8.25979 0 8.13261 0 8V0.5C0 0.367392 0.0574673 0.240215 0.15976 0.146447C0.262052 0.0526784 0.400791 0 0.545455 0H3.81818C4.39684 0 4.95179 0.210714 5.36096 0.585786C5.77013 0.960859 6 1.46957 6 2C6 2.13261 5.94253 2.25979 5.84024 2.35355C5.73795 2.44732 5.59921 2.5 5.45455 2.5C5.30988 2.5 5.17114 2.44732 5.06885 2.35355C4.96656 2.25979 4.90909 2.13261 4.90909 2C4.90909 1.73478 4.79416 1.48043 4.58957 1.29289C4.38499 1.10536 4.10751 1 3.81818 1H1.09091V7.5H3.81818C4.39684 7.5 4.95179 7.71071 5.36096 8.08579C5.77013 8.46086 6 8.96957 6 9.5C6 9.63261 5.94253 9.75979 5.84024 9.85355C5.73795 9.94732 5.59921 10 5.45455 10Z" fill="#232323"/>
</svg>
