<svg width="26" height="26" viewBox="0 0 26 26" fill="none" xmlns="http://www.w3.org/2000/svg">
<path fill-rule="evenodd" clip-rule="evenodd" d="M13.9784 17.3289C15.0556 16.7061 15.9966 15.873 16.7455 14.8794C16.5041 14.504 16.3324 14.0881 16.2385 13.6518L16.2032 13.4884C16.1021 13.0218 15.8638 12.596 15.519 12.2658C15.1742 11.9356 14.7386 11.7159 14.2681 11.6349C10.4201 10.9664 10.4201 5.44322 14.2681 4.77279C14.7226 4.69456 15.1448 4.48683 15.4841 4.17454C15.8234 3.86224 16.0654 3.45865 16.1809 3.01222C15.2761 2.0262 14.1688 1.24742 12.9349 0.729228C11.701 0.211038 10.3697 -0.0343178 9.03214 0.00996899C7.69459 0.0542558 6.38242 0.387138 5.18551 0.985813C3.9886 1.58449 2.93524 2.43481 2.09758 3.47852C1.25993 4.52224 0.657779 5.73468 0.33238 7.03281C0.00698043 8.33093 -0.033978 9.68405 0.21231 10.9995C0.458599 12.3149 0.986314 13.5615 1.75931 14.654C2.5323 15.7465 3.5323 16.659 4.69081 17.3289V19.4999C4.69081 19.9925 4.88647 20.4648 5.23475 20.8131C5.58303 21.1614 6.0554 21.3571 6.54795 21.3571H12.1194C12.6119 21.3571 13.0843 21.1614 13.4326 20.8131C13.7809 20.4648 13.9765 19.9925 13.9765 19.4999L13.9784 17.3289ZM4.69266 24.6071C4.69266 24.2377 4.83941 23.8834 5.10062 23.6222C5.36183 23.361 5.71611 23.2142 6.08552 23.2142H12.5855C12.9549 23.2142 13.3092 23.361 13.5704 23.6222C13.8316 23.8834 13.9784 24.2377 13.9784 24.6071C13.9784 24.9765 13.8316 25.3308 13.5704 25.592C13.3092 25.8532 12.9549 25.9999 12.5855 25.9999H6.08552C5.71611 25.9999 5.36183 25.8532 5.10062 25.592C4.83941 25.3308 4.69266 24.9765 4.69266 24.6071ZM18.2127 3.18865C18.5525 1.63608 20.7625 1.62679 21.1154 3.17565L21.1321 3.24993L21.1655 3.39479C21.366 4.24311 21.8108 5.01403 22.4449 5.61215C23.079 6.21026 23.8745 6.60932 24.7331 6.75993C26.3525 7.04222 26.3525 9.36736 24.7331 9.64965C23.8696 9.80093 23.0698 10.2035 22.4339 10.807C21.798 11.4105 21.3542 12.1882 21.1581 13.0426L21.1154 13.2321C20.7625 14.7828 18.5507 14.7735 18.2089 13.2191L18.1737 13.0575C17.9864 12.1998 17.548 11.4172 16.9143 10.8096C16.2806 10.202 15.4802 9.7969 14.6154 9.64593C12.9978 9.3655 12.9978 7.04408 14.6154 6.76179C15.4772 6.61192 16.2752 6.20968 16.9083 5.60601C17.5414 5.00234 17.9811 4.22438 18.1718 3.37065L18.1997 3.24993L18.2127 3.18865Z" fill="#DFDFDF"/>
</svg>
