<svg width="42" height="42" viewBox="0 0 42 42" fill="none" xmlns="http://www.w3.org/2000/svg">
<rect x="7" y="9" width="27" height="24" fill="white"/>
<path d="M20.8333 0C9.375 0 0 9.375 0 20.8333C0 32.2917 9.375 41.6667 20.8333 41.6667C32.2917 41.6667 41.6667 32.2917 41.6667 20.8333C41.6667 9.375 32.2917 0 20.8333 0ZM28.5417 25.625C29.375 26.4583 29.375 27.7083 28.5417 28.5417C27.7083 29.375 26.4583 29.375 25.625 28.5417L20.8333 23.75L16.0417 28.5417C15.2083 29.375 13.9583 29.375 13.125 28.5417C12.2917 27.7083 12.2917 26.4583 13.125 25.625L17.9167 20.8333L13.125 16.0417C12.2917 15.2083 12.2917 13.9583 13.125 13.125C13.9583 12.2917 15.2083 12.2917 16.0417 13.125L20.8333 17.9167L25.625 13.125C26.4583 12.2917 27.7083 12.2917 28.5417 13.125C29.375 13.9583 29.375 15.2083 28.5417 16.0417L23.75 20.8333L28.5417 25.625Z" fill="#F37070"/>
</svg>
