<svg width="219" height="160" viewBox="0 0 219 160" fill="none" xmlns="http://www.w3.org/2000/svg">
<path d="M147.204 28.9984C119.846 -9.26168 90.5505 11.514 79.3228 26.6843C43.3254 8.78846 30.7263 35.5123 28.9264 51.1111C-9.95087 66.3329 6.04227 93.6224 18.8985 105.364C22.1897 139.099 53.696 137.248 69.0378 132.105C95.3673 162.96 129.548 150.104 143.347 139.819C161.448 157.098 179.858 154.561 186.801 151.133C173.842 142.905 172.83 135.019 173.945 132.105C188.138 131.694 189.629 118.735 188.601 112.307C233.443 84.5373 209.856 58.7392 192.458 49.3113C186.492 15.3708 159.803 21.6275 147.204 28.9984Z" fill="#AD1A1A" fill-opacity="0.6" stroke="#E50707" stroke-width="3"/>
</svg>
