<svg width="10" height="13" viewBox="0 0 10 13" fill="none" xmlns="http://www.w3.org/2000/svg">
<path d="M5.9165 2.60417H1.6665C1.0797 2.60417 0.604004 3.07987 0.604004 3.66667V10.75C0.604004 11.3368 1.0797 11.8125 1.6665 11.8125H5.9165C6.50331 11.8125 6.979 11.3368 6.979 10.75V3.66667C6.979 3.07987 6.50331 2.60417 5.9165 2.60417Z" stroke="#727272" stroke-width="0.8"/>
<path d="M3.02051 2.25C3.02051 1.96821 3.13245 1.69796 3.33171 1.4987C3.53096 1.29944 3.80122 1.1875 4.08301 1.1875H8.33301C8.6148 1.1875 8.88505 1.29944 9.08431 1.4987C9.28357 1.69796 9.39551 1.96821 9.39551 2.25V9.33333C9.39551 9.61513 9.28357 9.88538 9.08431 10.0846C8.88505 10.2839 7.28179 10.5 7 10.5" stroke="#727272" stroke-width="0.8"/>
</svg>
