<svg width="39" height="43" viewBox="0 0 39 43" fill="none" xmlns="http://www.w3.org/2000/svg">
<path d="M13.455 7.44216C14.6012 4.088 19.2357 3.98641 20.5946 7.13741L20.7096 7.44408L22.2564 11.9674C22.6108 13.0048 23.1837 13.9541 23.9362 14.7512C24.6887 15.5484 25.6035 16.1749 26.6187 16.5885L27.0346 16.7437L31.558 18.2886C34.9121 19.4347 35.0137 24.0692 31.8646 25.4282L31.558 25.5432L27.0346 27.0899C25.9969 27.4442 25.0473 28.0169 24.2497 28.7694C23.4522 29.5219 22.8254 30.4368 22.4116 31.4522L22.2564 31.8662L20.7115 36.3915C19.5654 39.7457 14.9309 39.8472 13.5739 36.6982L13.455 36.3915L11.9102 31.8682C11.556 30.8304 10.9833 29.8808 10.2307 29.0833C9.47817 28.2858 8.56331 27.659 7.54787 27.2452L7.13387 27.0899L2.61054 25.5451C-0.745544 24.3989 -0.847127 19.7644 2.30387 18.4074L2.61054 18.2886L7.13387 16.7437C8.17124 16.3893 9.12052 15.8165 9.91768 15.0639C10.7149 14.3114 11.3414 13.3967 11.755 12.3814L11.9102 11.9674L13.455 7.44216ZM32.4166 0.833496C32.7752 0.833496 33.1266 0.934079 33.4308 1.12382C33.7351 1.31355 33.98 1.58483 34.1378 1.90683L34.2298 2.13108L34.9006 4.09758L36.869 4.76841C37.2284 4.8905 37.5434 5.11651 37.7741 5.41781C38.0049 5.71911 38.141 6.08213 38.1652 6.46087C38.1895 6.83961 38.1007 7.21701 37.9102 7.54526C37.7197 7.8735 37.4361 8.1378 37.0952 8.30466L36.869 8.39666L34.9025 9.0675L34.2317 11.0359C34.1094 11.3952 33.8832 11.71 33.5818 11.9406C33.2804 12.1711 32.9173 12.307 32.5386 12.331C32.1599 12.3551 31.7825 12.2661 31.4544 12.0755C31.1263 11.8848 30.8622 11.6011 30.6955 11.2602L30.6035 11.0359L29.9326 9.06941L27.9642 8.39858C27.6049 8.2765 27.2899 8.05048 27.0591 7.74918C26.8283 7.44788 26.6922 7.08486 26.668 6.70612C26.6438 6.32738 26.7325 5.94998 26.923 5.62174C27.1135 5.2935 27.3972 5.0292 27.738 4.86233L27.9642 4.77033L29.9307 4.0995L30.6015 2.13108C30.7308 1.7524 30.9753 1.42365 31.3008 1.19095C31.6263 0.95825 32.0165 0.833256 32.4166 0.833496Z" fill="#DFDFDF"/>
</svg>
