<svg width="8" height="5" viewBox="0 0 8 5" fill="none" xmlns="http://www.w3.org/2000/svg">
<path fill-rule="evenodd" clip-rule="evenodd" d="M3.58769 4.39808C3.69708 4.49832 3.84543 4.55463 4.0001 4.55463C4.15478 4.55463 4.30313 4.49832 4.41252 4.39808L7.71244 1.37345C7.76815 1.32413 7.81259 1.26513 7.84316 1.1999C7.87374 1.13466 7.88983 1.0645 7.8905 0.993511C7.89117 0.922518 7.87641 0.852112 7.84708 0.786403C7.81775 0.720694 7.77444 0.660997 7.71967 0.610795C7.6649 0.560593 7.59977 0.520892 7.52808 0.494008C7.45639 0.467125 7.37957 0.453597 7.30212 0.454214C7.22467 0.45483 7.14812 0.46958 7.07695 0.497602C7.00578 0.525623 6.94142 0.566356 6.8876 0.617422L4.0001 3.26405L1.11261 0.617422C1.00259 0.520027 0.855236 0.466135 0.702288 0.467354C0.54934 0.468572 0.403032 0.524802 0.294878 0.623935C0.186723 0.723067 0.125375 0.85717 0.124045 0.997359C0.122716 1.13755 0.181513 1.27261 0.287772 1.37345L3.58769 4.39808Z" fill="#232323"/>
</svg>
