<svg width="32" height="32" viewBox="0 0 32 32" fill="none" xmlns="http://www.w3.org/2000/svg">
<path d="M27.4357 14.9276V12.3934H24.9016V9.8593C24.8995 9.18782 24.6319 8.54442 24.1571 8.06961C23.6823 7.5948 23.0389 7.32716 22.3674 7.32516H19.8333V4.79102H17.2991V7.32516H14.765V4.79102H12.2308V7.32516H9.6967C9.02522 7.32716 8.38182 7.5948 7.90701 8.06961C7.4322 8.54442 7.16456 9.18782 7.16256 9.8593V12.3934H4.62842V14.9276H7.16256V17.4617H4.62842V19.9959H7.16256V22.53C7.16456 23.2015 7.4322 23.8449 7.90701 24.3197C8.38182 24.7945 9.02522 25.0621 9.6967 25.0641H12.2308V27.5983H14.765V25.0641H17.2991V27.5983H19.8333V25.0641H22.3674C23.0389 25.0621 23.6823 24.7945 24.1571 24.3197C24.6319 23.8449 24.8995 23.2015 24.9016 22.53V19.9959H27.4357V17.4617H24.9016V14.9276H27.4357ZM22.3674 22.53H9.6967V9.8593H22.3674V22.53Z" fill="white"/>
<path d="M15.2222 11.1263H13.518L10.9712 21.2629H12.2725L12.8604 18.8872H15.7949L16.3676 21.2629H17.7133L15.2222 11.1263ZM13.0314 17.8722L14.3213 12.3301H14.3796L15.6251 17.8722H13.0314ZM18.8752 11.1263H20.1423V21.2629H18.8752V11.1263Z" fill="white"/>
</svg>
