<svg width="22" height="22" viewBox="0 0 22 22" fill="none" xmlns="http://www.w3.org/2000/svg">
<path d="M10.0246 4.31824C10.2594 3.27868 11.7406 3.27869 11.9754 4.31824L12.2959 5.73692C12.4481 6.41065 13.2212 6.7309 13.8052 6.36211L15.035 5.58555C15.9361 5.01652 16.9835 6.06389 16.4144 6.96501L15.6379 8.19476C15.2691 8.77878 15.5893 9.55193 16.2631 9.70412L17.6818 10.0246C18.7213 10.2594 18.7213 11.7406 17.6818 11.9754L16.2631 12.2959C15.5893 12.4481 15.2691 13.2212 15.6379 13.8052L16.4144 15.035C16.9835 15.9361 15.9361 16.9835 15.035 16.4144L13.8052 15.6379C13.2212 15.2691 12.4481 15.5893 12.2959 16.2631L11.9754 17.6818C11.7406 18.7213 10.2594 18.7213 10.0246 17.6818L9.70412 16.2631C9.55193 15.5893 8.77878 15.2691 8.19476 15.6379L6.96501 16.4144C6.06389 16.9835 5.01652 15.9361 5.58555 15.035L6.36211 13.8052C6.7309 13.2212 6.41065 12.4481 5.73692 12.2959L4.31824 11.9754C3.27868 11.7406 3.27869 10.2594 4.31824 10.0246L5.73692 9.70412C6.41065 9.55193 6.7309 8.77878 6.36211 8.19476L5.58555 6.96501C5.01652 6.06389 6.06389 5.01652 6.96501 5.58555L8.19476 6.36211C8.77878 6.7309 9.55193 6.41065 9.70412 5.73692L10.0246 4.31824Z" fill="white"/>
<path d="M10.375 12.875H11.625V14.125H10.375V12.875Z" fill="#232323"/>
<path fill-rule="evenodd" clip-rule="evenodd" d="M11 9C10.4025 9 10 9.543 10 10H9C9 9.099 9.748 8 11 8C12.248 8 13 9.071 13 10C13 10.789 12.446 11.189 12.103 11.4365L12.045 11.4785C11.6675 11.7545 11.5 11.9115 11.5 12.25H10.5C10.5 11.369 11.0805 10.945 11.4535 10.6725L11.455 10.6715C11.871 10.367 12 10.2515 12 10C12 9.525 11.602 9 11 9Z" fill="#232323"/>
</svg>
