<svg width="13" height="8" viewBox="0 0 13 8" fill="none" xmlns="http://www.w3.org/2000/svg">
<path fill-rule="evenodd" clip-rule="evenodd" d="M5.79768 7.69458C5.98078 7.89014 6.22909 8 6.488 8C6.74691 8 6.99522 7.89014 7.17833 7.69458L12.7019 1.79348C12.7952 1.69725 12.8696 1.58214 12.9207 1.45488C12.9719 1.32761 12.9988 1.19072 13 1.05222C13.0011 0.913707 12.9764 0.776346 12.9273 0.648146C12.8782 0.519947 12.8057 0.403476 12.714 0.305532C12.6223 0.207588 12.5133 0.130131 12.3933 0.0776801C12.2733 0.0252296 12.1447 -0.00116369 12.0151 3.99115e-05C11.8855 0.00124351 11.7573 0.0300202 11.6382 0.0846906C11.5191 0.139361 11.4113 0.21883 11.3213 0.318462L6.488 5.48206L1.65474 0.318461C1.47059 0.128443 1.22394 0.0232994 0.967931 0.0256761C0.711918 0.0280528 0.467021 0.13776 0.285985 0.331168C0.10495 0.524577 0.00226156 0.786212 3.68648e-05 1.05972C-0.00218783 1.33323 0.0962293 1.59674 0.274091 1.79348L5.79768 7.69458Z" fill="#848484"/>
</svg>
