<svg width="16" height="16" viewBox="0 0 16 16" fill="none" xmlns="http://www.w3.org/2000/svg">
<path fill-rule="evenodd" clip-rule="evenodd" d="M14.0664 4.36728L14.0864 4.38328C14.4444 4.65861 14.6664 5.08528 14.6664 5.55462V13.0586C14.6674 13.3569 14.6096 13.6526 14.4961 13.9285C14.3827 14.2044 14.2159 14.4552 14.0053 14.6666C13.7947 14.8779 13.5445 15.0456 13.269 15.16C12.9934 15.2744 12.698 15.3333 12.3997 15.3333H3.59969C3.30135 15.3333 3.00595 15.2744 2.73042 15.16C2.45489 15.0456 2.20466 14.8779 1.99408 14.6666C1.78349 14.4552 1.6167 14.2044 1.50326 13.9285C1.38982 13.6526 1.33197 13.3569 1.33302 13.0586V5.55462C1.33302 5.08528 1.55502 4.65861 1.91302 4.38328L1.93236 4.36795L7.12569 0.946615C7.37573 0.764879 7.67691 0.666992 7.98602 0.666992C8.29514 0.666992 8.59631 0.764879 8.84636 0.946615L14.0664 4.36728ZM6.66636 8.66661V13.9999H5.33302V8.53328C5.33302 7.87195 5.87169 7.33328 6.53302 7.33328H9.46636C10.1277 7.33328 10.6664 7.87195 10.6664 8.53328V13.9999H9.33302V8.66661H6.66636Z" fill="#DFDFDF"/>
</svg>
