<svg width="19" height="19" viewBox="0 0 19 19" fill="none" xmlns="http://www.w3.org/2000/svg">
<mask id="mask0_91_916" style="mask-type:luminance" maskUnits="userSpaceOnUse" x="0" y="0" width="19" height="19">
<path d="M9.5 19C14.7467 19 19 14.7467 19 9.5C19 4.25329 14.7467 0 9.5 0C4.25329 0 0 4.25329 0 9.5C0 14.7467 4.25329 19 9.5 19Z" fill="white"/>
</mask>
<g mask="url(#mask0_91_916)">
<path d="M9.5 0H19V2.375L17.8125 3.5625L19 4.75V7.125L17.8125 8.3125L19 9.5V11.875L17.8125 13.0625L19 14.25V16.625L9.5 17.8125L0 16.625V14.25L1.1875 13.0625L0 11.875V9.5L9.5 0Z" fill="#EEEEEE"/>
<path d="M8.3125 2.375H19V4.75H8.3125V2.375ZM8.3125 7.125H19V9.5H9.5L8.3125 7.125ZM0 11.875H19V14.25H0V11.875ZM0 16.625H19V19H0V16.625Z" fill="#D80027"/>
<path d="M0 0H9.5V9.5H0V0Z" fill="#0052B4"/>
<path d="M6.93945 9.01758L9.05469 7.49609H6.45703L8.57227 9.01758L7.75586 6.53125L6.93945 9.01758ZM3.93359 9.01758L6.04883 7.49609H3.45117L5.56641 9.01758L4.75 6.53125L3.93359 9.01758ZM0.927734 9.01758L3.04297 7.49609H0.445312L2.56055 9.01758L1.74414 6.53125L0.927734 9.01758ZM6.93945 6.01172L9.05469 4.49023H6.45703L8.57227 6.01172L7.75586 3.52539L6.93945 6.01172ZM3.93359 6.01172L6.04883 4.49023H3.45117L5.56641 6.01172L4.75 3.52539L3.93359 6.01172ZM0.927734 6.01172L3.04297 4.49023H0.445312L2.56055 6.01172L1.74414 3.52539L0.927734 6.01172ZM6.93945 2.96875L9.05469 1.44727H6.45703L8.57227 2.96875L7.75586 0.482422L6.93945 2.96875ZM3.93359 2.96875L6.04883 1.44727H3.45117L5.56641 2.96875L4.75 0.482422L3.93359 2.96875ZM0.927734 2.96875L3.04297 1.44727H0.445312L2.56055 2.96875L1.74414 0.482422L0.927734 2.96875Z" fill="#EEEEEE"/>
</g>
</svg>
