<svg width="17" height="20" viewBox="0 0 17 20" fill="none" xmlns="http://www.w3.org/2000/svg">
<path d="M1.40039 12.375H15.4004M1.40039 12.375V17.625C1.40039 17.857 1.49258 18.0796 1.65667 18.2437C1.82077 18.4078 2.04332 18.5 2.27539 18.5H14.5254C14.7574 18.5 14.98 18.4078 15.1441 18.2437C15.3082 18.0796 15.4004 17.857 15.4004 17.625V12.375M1.40039 12.375V1.875C1.40039 1.64293 1.49258 1.42037 1.65667 1.25628C1.82077 1.09219 2.04332 1 2.27539 1H14.5254C14.7574 1 14.98 1.09219 15.1441 1.25628C15.3082 1.42037 15.4004 1.64293 15.4004 1.875V12.375" stroke="#232323" stroke-width="1.4" stroke-linejoin="round"/>
<path d="M7.52637 15.4375H9.27636" stroke="#232323" stroke-width="1.4" stroke-linecap="round"/>
</svg>
