<svg width="19" height="19" viewBox="0 0 15 15" fill="none" xmlns="http://www.w3.org/2000/svg">
<path d="M3.25 4.25H2.5C2.10218 4.25 1.72064 4.40804 1.43934 4.68934C1.15804 4.97064 1 5.35218 1 5.75V12.5C1 12.8978 1.15804 13.2794 1.43934 13.5607C1.72064 13.842 2.10218 14 2.5 14H9.25C9.64782 14 10.0294 13.842 10.3107 13.5607C10.592 13.2794 10.75 12.8978 10.75 12.5V11.75" stroke="white" stroke-width="1.2" stroke-linecap="round" stroke-linejoin="round"/>
<path d="M10 2.75L12.25 5M13.2888 3.93875C13.5841 3.64337 13.7501 3.24274 13.7501 2.825C13.7501 2.40727 13.5841 2.00664 13.2888 1.71125C12.9934 1.41587 12.5927 1.24992 12.175 1.24992C11.7573 1.24992 11.3566 1.41587 11.0613 1.71125L4.75 8V10.25H7L13.2888 3.93875Z" stroke="white" stroke-width="1.2" stroke-linecap="round" stroke-linejoin="round"/>
</svg>
