<svg width="17" height="18" viewBox="0 0 17 18" fill="none" xmlns="http://www.w3.org/2000/svg">
<path d="M10.4248 4.21362C10.0062 2.98862 8.31363 2.95152 7.81733 4.10232L7.77533 4.21432L7.21043 5.86632C7.08097 6.24518 6.87177 6.59188 6.59693 6.88301C6.32209 7.17415 5.98802 7.40297 5.61723 7.55402L5.46533 7.61072L3.81333 8.17492C2.58833 8.59352 2.55123 10.2861 3.70133 10.7824L3.81333 10.8244L5.46533 11.3893C5.84432 11.5187 6.19115 11.7279 6.48242 12.0027C6.77368 12.2775 7.0026 12.6117 7.15373 12.9825L7.21043 13.1337L7.77463 14.7864C8.19323 16.0114 9.88583 16.0485 10.3814 14.8984L10.4248 14.7864L10.989 13.1344C11.1184 12.7554 11.3276 12.4086 11.6024 12.1173C11.8773 11.8261 12.2114 11.5971 12.5822 11.446L12.7334 11.3893L14.3854 10.8251C15.6111 10.4065 15.6482 8.71392 14.4974 8.21832L14.3854 8.17492L12.7334 7.61072C12.3546 7.48126 12.0079 7.27205 11.7167 6.99722C11.4256 6.72238 11.1968 6.3883 11.0457 6.01752L10.989 5.86632L10.4248 4.21362ZM3.49973 1.80002C3.36878 1.80002 3.24045 1.83675 3.12932 1.90605C3.01821 1.97534 2.92875 2.07442 2.87113 2.19202L2.83753 2.27392L2.59253 2.99212L1.87363 3.23712C1.74239 3.28171 1.62735 3.36425 1.54307 3.47429C1.4588 3.58433 1.40908 3.71691 1.40024 3.85523C1.39139 3.99356 1.42381 4.13139 1.49338 4.25127C1.56295 4.37115 1.66654 4.46768 1.79103 4.52862L1.87363 4.56222L2.59183 4.80722L2.83683 5.52612C2.8815 5.65732 2.9641 5.77231 3.07419 5.85651C3.18427 5.94072 3.31687 5.99035 3.45518 5.99912C3.5935 6.00789 3.73131 5.97541 3.85114 5.90578C3.97098 5.83616 4.06745 5.73253 4.12833 5.60802L4.16193 5.52612L4.40693 4.80792L5.12583 4.56292C5.25707 4.51833 5.37212 4.43579 5.45639 4.32575C5.54067 4.21571 5.59038 4.08313 5.59923 3.9448C5.60807 3.80648 5.57566 3.66865 5.50608 3.54877C5.43651 3.42889 5.33292 3.33236 5.20843 3.27142L5.12583 3.23782L4.40763 2.99282L4.16263 2.27392C4.11543 2.13562 4.02613 2.01555 3.90725 1.93057C3.78837 1.84558 3.64587 1.79993 3.49973 1.80002Z" fill="white"/>
</svg>
