<svg width="13" height="13" viewBox="0 0 13 13" fill="none" xmlns="http://www.w3.org/2000/svg">
<path fill-rule="evenodd" clip-rule="evenodd" d="M6.98968 8.66447C7.52827 8.35303 7.99878 7.93652 8.37325 7.43968C8.25256 7.25198 8.16669 7.04406 8.11975 6.82589L8.10211 6.74418C8.05153 6.51088 7.93239 6.29802 7.76 6.1329C7.5876 5.96778 7.36979 5.85794 7.13453 5.81747C5.21053 5.48318 5.21053 2.72161 7.13453 2.38639C7.36177 2.34728 7.57288 2.24342 7.74254 2.08727C7.91219 1.93112 8.03318 1.72933 8.09096 1.50611C7.63853 1.0131 7.08488 0.623709 6.46794 0.364614C5.85099 0.105519 5.18533 -0.0171589 4.51656 0.0049845C3.84778 0.0271279 3.1917 0.193569 2.59324 0.492907C1.99479 0.792244 1.46811 1.2174 1.04928 1.73926C0.630453 2.26112 0.329378 2.86734 0.166678 3.5164C0.0039785 4.16546 -0.0165007 4.84202 0.106643 5.49974C0.229788 6.15745 0.493645 6.78077 0.880141 7.32701C1.26664 7.87324 1.76664 8.32948 2.34589 8.66447V9.74997C2.34589 9.99624 2.44372 10.2324 2.61786 10.4066C2.792 10.5807 3.02819 10.6785 3.27446 10.6785H6.06018C6.30645 10.6785 6.54263 10.5807 6.71678 10.4066C6.89092 10.2324 6.98875 9.99624 6.98875 9.74997L6.98968 8.66447ZM2.34682 12.3035C2.34682 12.1188 2.42019 11.9417 2.5508 11.8111C2.6814 11.6805 2.85854 11.6071 3.04325 11.6071H6.29325C6.47795 11.6071 6.65509 11.6805 6.7857 11.8111C6.9163 11.9417 6.98968 12.1188 6.98968 12.3035C6.98968 12.4882 6.9163 12.6654 6.7857 12.796C6.65509 12.9266 6.47795 13 6.29325 13H3.04325C2.85854 13 2.6814 12.9266 2.5508 12.796C2.42019 12.6654 2.34682 12.4882 2.34682 12.3035ZM9.10682 1.59432C9.27675 0.818038 10.3817 0.813395 10.5582 1.58782L10.5665 1.62497L10.5832 1.69739C10.6835 2.12155 10.9059 2.50701 11.2229 2.80607C11.54 3.10513 11.9377 3.30466 12.367 3.37997C13.1767 3.52111 13.1767 4.68368 12.367 4.82482C11.9353 4.90047 11.5354 5.10176 11.2174 5.40352C10.8995 5.70527 10.6776 6.09409 10.5795 6.52132L10.5582 6.61604C10.3817 7.3914 9.27582 7.38675 9.10496 6.60954L9.08732 6.52875C8.99371 6.09988 8.77449 5.7086 8.45763 5.4048C8.14077 5.101 7.74061 4.89845 7.30818 4.82297C6.49939 4.68275 6.49939 3.52204 7.30818 3.38089C7.7391 3.30596 8.13809 3.10484 8.45463 2.803C8.77118 2.50117 8.99105 2.11219 9.08639 1.68532L9.10032 1.62497L9.10682 1.59432Z" fill="#DFDFDF"/>
</svg>
