<svg width="8" height="13" viewBox="0 0 8 13" fill="none" xmlns="http://www.w3.org/2000/svg">
<path fill-rule="evenodd" clip-rule="evenodd" d="M0.292902 5.51465C0.105431 5.68654 0.000114918 5.91963 0.000114918 6.16267C0.000114918 6.40572 0.105431 6.63881 0.292902 6.8107L5.9499 11.9958C6.04215 12.0833 6.15249 12.1532 6.2745 12.2012C6.3965 12.2492 6.52772 12.2745 6.6605 12.2756C6.79328 12.2766 6.92496 12.2534 7.04785 12.2074C7.17075 12.1613 7.2824 12.0932 7.3763 12.0071C7.47019 11.9211 7.54444 11.8188 7.59472 11.7061C7.645 11.5935 7.67031 11.4728 7.66915 11.3511C7.668 11.2294 7.64041 11.1091 7.588 10.9973C7.53559 10.8854 7.45941 10.7843 7.3639 10.6997L2.4139 6.16267L7.3639 1.6256C7.54606 1.45274 7.64685 1.2212 7.64458 0.980881C7.6423 0.740556 7.53713 0.510667 7.35172 0.340725C7.16631 0.170784 6.9155 0.0743886 6.6533 0.0723003C6.39111 0.0702119 6.1385 0.162598 5.9499 0.32956L0.292902 5.51465Z" fill="#232323"/>
</svg>
