<svg width="13" height="15" viewBox="0 0 13 15" fill="none" xmlns="http://www.w3.org/2000/svg">
<path d="M1.2002 9.77497H12.0002M1.2002 9.77497V13.825C1.2002 14.004 1.27131 14.1757 1.3979 14.3023C1.52448 14.4288 1.69617 14.5 1.87519 14.5H11.3252C11.5042 14.5 11.6759 14.4288 11.8025 14.3023C11.929 14.1757 12.0002 14.004 12.0002 13.825V9.77497M1.2002 9.77497V1.675C1.2002 1.49598 1.27131 1.32429 1.3979 1.1977C1.52448 1.07112 1.69617 1 1.87519 1H11.3252C11.5042 1 11.6759 1.07112 11.8025 1.1977C11.929 1.32429 12.0002 1.49598 12.0002 1.675V9.77497" stroke="#848484" stroke-linejoin="round"/>
<path d="M5.92578 12.1375H7.27578" stroke="#848484" stroke-linecap="round"/>
</svg>
