<svg width="36" height="48" viewBox="0 0 36 48" fill="none" xmlns="http://www.w3.org/2000/svg">
<path d="M18.0011 29.945C20.0613 29.945 21.8124 29.2239 23.2546 27.7818C24.6967 26.3397 25.4178 24.5885 25.4178 22.5283V7.69499C25.4178 5.6348 24.6967 3.88364 23.2546 2.44151C21.8124 0.999385 20.0613 0.27832 18.0011 0.27832C15.9409 0.27832 14.1897 0.999385 12.7476 2.44151C11.3055 3.88364 10.5844 5.6348 10.5844 7.69499V22.5283C10.5844 24.5885 11.3055 26.3397 12.7476 27.7818C14.1897 29.2239 15.9409 29.945 18.0011 29.945ZM20.4733 47.2505V39.6485C24.7585 39.0716 28.302 37.1556 31.1039 33.9005C33.9057 30.6455 35.3066 26.8547 35.3066 22.5283H30.3622C30.3622 25.9482 29.1566 28.8638 26.7453 31.275C24.3341 33.6863 21.4193 34.8911 18.0011 34.8894C14.5828 34.8878 11.6673 33.6822 9.25436 31.2726C6.84147 28.863 5.63668 25.9482 5.63998 22.5283H0.69553C0.69553 26.8547 2.09646 30.6455 4.89831 33.9005C7.70016 37.1556 11.2437 39.0716 15.5289 39.6485V47.2505H20.4733Z" fill="white"/>
</svg>
