<svg width="13" height="13" viewBox="0 0 13 13" fill="none" xmlns="http://www.w3.org/2000/svg">
<g clip-path="url(#clip0_91_784)">
<path fill-rule="evenodd" clip-rule="evenodd" d="M7.72108 0.739369C7.12741 0.57362 6.57166 0.752369 6.17679 1.11583C5.78733 1.47333 5.55225 2.00741 5.55225 2.57833V6.20479C5.55225 6.53448 5.68322 6.85068 5.91635 7.08381C6.14948 7.31694 6.46567 7.44791 6.79537 7.44791H10.4213C10.9927 7.44791 11.5274 7.21283 11.8843 6.82337C12.2472 6.42849 12.4265 5.87274 12.2608 5.27908C11.9571 4.1966 11.38 3.21045 10.5851 2.41542C9.79014 1.62039 8.80406 1.04321 7.72162 0.739369M6.36475 2.57833C6.36475 2.22516 6.511 1.91099 6.72658 1.71329C6.93566 1.52099 7.2065 1.43812 7.50279 1.52099C9.4257 2.05779 10.9418 3.57391 11.4786 5.49683C11.5615 5.79366 11.4786 6.06449 11.2863 6.27358C11.0886 6.48862 10.7745 6.63487 10.4213 6.63487H6.79537C6.68116 6.63487 6.57163 6.5895 6.49087 6.50874C6.41012 6.42798 6.36475 6.31845 6.36475 6.20424V2.57833Z" fill="#727272"/>
<path d="M4.6975 2.5545C4.80036 2.52217 4.88616 2.45031 4.93604 2.35473C4.98592 2.25914 4.99578 2.14765 4.96345 2.04479C4.93113 1.94193 4.85927 1.85612 4.76368 1.80625C4.66809 1.75637 4.55661 1.74651 4.45375 1.77883C2.26595 2.46675 0.677246 4.511 0.677246 6.92792C0.677246 9.90762 3.09308 12.3235 6.07225 12.3235C7.2207 12.3239 8.33932 11.9578 9.26532 11.2784C10.1913 10.5991 10.8764 9.64201 11.2208 8.54642C11.2389 8.495 11.2465 8.44047 11.2431 8.38606C11.2397 8.33166 11.2254 8.27849 11.201 8.22973C11.1767 8.18097 11.1427 8.13762 11.1012 8.10225C11.0598 8.06688 11.0116 8.04021 10.9596 8.02385C10.9076 8.00749 10.8528 8.00176 10.7986 8.007C10.7443 8.01224 10.6917 8.02835 10.6438 8.05437C10.5959 8.08038 10.5537 8.11577 10.5197 8.15843C10.4858 8.20109 10.4608 8.25014 10.4462 8.30267C10.1533 9.23309 9.57127 10.0459 8.78476 10.6228C7.99825 11.1998 7.04823 11.5109 6.07279 11.511C5.47096 11.511 4.87501 11.3926 4.31897 11.1623C3.76294 10.932 3.2577 10.5945 2.83212 10.169C2.40654 9.74343 2.06895 9.23824 1.83862 8.68223C1.60829 8.12622 1.48975 7.53029 1.48975 6.92846C1.48975 5.95308 1.80078 5.00311 2.37765 4.21661C2.95452 3.43011 3.76717 2.84751 4.6975 2.5545Z" fill="#727272"/>
</g>
<defs>
<clipPath id="clip0_91_784">
<rect width="13" height="13" fill="white"/>
</clipPath>
</defs>
</svg>
