<svg width="12" height="12" viewBox="0 0 12 12" fill="none" xmlns="http://www.w3.org/2000/svg">
<path d="M6 7.5C6.82843 7.5 7.5 6.82843 7.5 6C7.5 5.17157 6.82843 4.5 6 4.5C5.17157 4.5 4.5 5.17157 4.5 6C4.5 6.82843 5.17157 7.5 6 7.5Z" stroke="#848484"/>
<path d="M6.88273 1.076C6.69923 1 6.46623 1 6.00023 1C5.53423 1 5.30123 1 5.11773 1.076C4.99632 1.12626 4.886 1.19995 4.79309 1.29286C4.70017 1.38578 4.62648 1.49609 4.57623 1.6175C4.53023 1.729 4.51173 1.8595 4.50473 2.049C4.50147 2.18596 4.46353 2.31987 4.39445 2.43818C4.32537 2.55649 4.2274 2.65535 4.10973 2.7255C3.99013 2.79239 3.85552 2.82784 3.71849 2.82854C3.58146 2.82924 3.4465 2.79516 3.32623 2.7295C3.15823 2.6405 3.03673 2.5915 2.91623 2.5755C2.65338 2.54094 2.38758 2.61215 2.17723 2.7735C2.02023 2.895 1.90323 3.0965 1.67023 3.5C1.43723 3.9035 1.32023 4.105 1.29473 4.3025C1.27754 4.43273 1.28619 4.56506 1.32016 4.69195C1.35413 4.81883 1.41277 4.93778 1.49273 5.042C1.56673 5.138 1.67023 5.2185 1.83073 5.3195C2.06723 5.468 2.21923 5.721 2.21923 6C2.21923 6.279 2.06723 6.532 1.83073 6.68C1.67023 6.7815 1.56623 6.862 1.49273 6.958C1.41277 7.06222 1.35413 7.18117 1.32016 7.30805C1.28619 7.43494 1.27754 7.56727 1.29473 7.6975C1.32073 7.8945 1.43723 8.0965 1.66973 8.5C1.90323 8.9035 2.01973 9.105 2.17723 9.2265C2.28144 9.30645 2.40039 9.36509 2.52728 9.39907C2.65416 9.43304 2.7865 9.44168 2.91673 9.4245C3.03673 9.4085 3.15823 9.3595 3.32623 9.2705C3.4465 9.20484 3.58146 9.17076 3.71849 9.17146C3.85552 9.17216 3.99013 9.20761 4.10973 9.2745C4.35123 9.4145 4.49473 9.672 4.50473 9.951C4.51173 10.141 4.52973 10.271 4.57623 10.3825C4.62648 10.5039 4.70017 10.6142 4.79309 10.7071C4.886 10.8001 4.99632 10.8737 5.11773 10.924C5.30123 11 5.53423 11 6.00023 11C6.46623 11 6.69923 11 6.88273 10.924C7.00413 10.8737 7.11445 10.8001 7.20736 10.7071C7.30028 10.6142 7.37397 10.5039 7.42422 10.3825C7.47022 10.271 7.48873 10.141 7.49573 9.951C7.50573 9.672 7.64923 9.414 7.89073 9.2745C8.01032 9.20761 8.14493 9.17216 8.28196 9.17146C8.41899 9.17076 8.55395 9.20484 8.67422 9.2705C8.84222 9.3595 8.96372 9.4085 9.08372 9.4245C9.21395 9.44168 9.34629 9.43304 9.47317 9.39907C9.60006 9.36509 9.71901 9.30645 9.82323 9.2265C9.98073 9.1055 10.0972 8.9035 10.3302 8.5C10.5632 8.0965 10.6802 7.895 10.7057 7.6975C10.7229 7.56727 10.7143 7.43494 10.6803 7.30805C10.6463 7.18117 10.5877 7.06222 10.5077 6.958C10.4337 6.862 10.3302 6.7815 10.1697 6.6805C10.0527 6.6092 9.95566 6.50937 9.88771 6.39035C9.81977 6.27134 9.78313 6.13703 9.78123 6C9.78123 5.721 9.93323 5.468 10.1697 5.32C10.3302 5.2185 10.4342 5.138 10.5077 5.042C10.5877 4.93778 10.6463 4.81883 10.6803 4.69195C10.7143 4.56506 10.7229 4.43273 10.7057 4.3025C10.6797 4.1055 10.5632 3.9035 10.3307 3.5C10.0972 3.0965 9.98073 2.895 9.82323 2.7735C9.71901 2.69355 9.60006 2.63491 9.47317 2.60093C9.34629 2.56696 9.21395 2.55832 9.08372 2.5755C8.96372 2.5915 8.84223 2.6405 8.67373 2.7295C8.55351 2.79507 8.41864 2.8291 8.28171 2.8284C8.14478 2.8277 8.01026 2.7923 7.89073 2.7255C7.77305 2.65535 7.67509 2.55649 7.606 2.43818C7.53692 2.31987 7.49898 2.18596 7.49573 2.049C7.48873 1.859 7.47072 1.729 7.42422 1.6175C7.37397 1.49609 7.30028 1.38578 7.20736 1.29286C7.11445 1.19995 7.00413 1.12626 6.88273 1.076Z" stroke="#848484"/>
</svg>
