<svg width="12" height="10" viewBox="0 0 12 10" fill="none" xmlns="http://www.w3.org/2000/svg">
<path d="M9.793 4.50002H0.5C0.367392 4.50002 0.240215 4.5527 0.146447 4.64647C0.0526785 4.74024 0 4.86741 0 5.00002C0 5.13263 0.0526785 5.25981 0.146447 5.35357C0.240215 5.44734 0.367392 5.50002 0.5 5.50002H9.793L6.146 9.14602C6.05211 9.23991 5.99937 9.36725 5.99937 9.50002C5.99937 9.6328 6.05211 9.76013 6.146 9.85402C6.23989 9.94791 6.36722 10.0007 6.5 10.0007C6.63278 10.0007 6.76011 9.94791 6.854 9.85402L11.354 5.35402C11.4006 5.30758 11.4375 5.2524 11.4627 5.19165C11.4879 5.13091 11.5009 5.06579 11.5009 5.00002C11.5009 4.93425 11.4879 4.86913 11.4627 4.80839C11.4375 4.74764 11.4006 4.69247 11.354 4.64602L6.854 0.146021C6.76011 0.0521345 6.63278 -0.000610352 6.5 -0.000610352C6.36722 -0.000610352 6.23989 0.0521345 6.146 0.146021C6.05211 0.239908 5.99937 0.367245 5.99937 0.500021C5.99937 0.632797 6.05211 0.760135 6.146 0.854021L9.793 4.50002Z" fill="white"/>
</svg>
