<svg width="11" height="11" viewBox="0 0 11 11" fill="none" xmlns="http://www.w3.org/2000/svg">
<path d="M2.1875 3.1875H1.625C1.32663 3.1875 1.04048 3.30603 0.829505 3.517C0.618526 3.72798 0.5 4.01413 0.5 4.3125V9.375C0.5 9.67337 0.618526 9.95952 0.829505 10.1705C1.04048 10.3815 1.32663 10.5 1.625 10.5H6.6875C6.98587 10.5 7.27202 10.3815 7.48299 10.1705C7.69397 9.95952 7.8125 9.67337 7.8125 9.375V8.8125" stroke="#232323" stroke-linecap="round" stroke-linejoin="round"/>
<path d="M7.25 2.0625L8.9375 3.75M9.71656 2.95406C9.9381 2.73252 10.0626 2.43205 10.0626 2.11875C10.0626 1.80545 9.9381 1.50498 9.71656 1.28344C9.49502 1.0619 9.19455 0.937439 8.88125 0.937439C8.56795 0.937439 8.26748 1.0619 8.04594 1.28344L3.3125 6V7.6875H5L9.71656 2.95406Z" stroke="#232323" stroke-linecap="round" stroke-linejoin="round"/>
</svg>
