<svg width="24" height="24" viewBox="0 0 24 24" fill="none" xmlns="http://www.w3.org/2000/svg">
<path d="M11.9998 10V19M11.9998 10L14.9998 13M11.9998 10L8.99977 13M17.4998 15C19.0188 15 19.9998 13.769 19.9998 12.25C19.9997 11.6486 19.8025 11.0638 19.4384 10.5852C19.0743 10.1066 18.5633 9.76052 17.9838 9.6C17.8946 8.47846 17.4298 7.41977 16.6645 6.5951C15.8991 5.77042 14.878 5.22797 13.7663 5.05543C12.6545 4.88289 11.517 5.09036 10.5378 5.64429C9.55849 6.19822 8.79467 7.06624 8.36977 8.108C7.4752 7.86002 6.51875 7.97757 5.71085 8.43479C4.90294 8.892 4.30975 9.65143 4.06177 10.546C3.81379 11.4406 3.93134 12.397 4.38856 13.2049C4.84577 14.0128 5.6052 14.606 6.49977 14.854" stroke="#232323" stroke-width="2" stroke-linecap="round" stroke-linejoin="round"/>
</svg>
