<svg width="35" height="48" viewBox="0 0 35 48" fill="none" xmlns="http://www.w3.org/2000/svg">
<path d="M17.3341 30.6115C19.3943 30.6115 21.1454 29.8904 22.5876 28.4483C24.0297 27.0062 24.7508 25.255 24.7508 23.1948V8.36149C24.7508 6.30131 24.0297 4.55015 22.5876 3.10802C21.1454 1.66589 19.3943 0.944824 17.3341 0.944824C15.2739 0.944824 13.5228 1.66589 12.0806 3.10802C10.6385 4.55015 9.91743 6.30131 9.91743 8.36149V23.1948C9.91743 25.255 10.6385 27.0062 12.0806 28.4483C13.5228 29.8904 15.2739 30.6115 17.3341 30.6115ZM19.8063 47.917V40.315C24.0915 39.7381 27.635 37.8221 30.4369 34.567C33.2387 31.312 34.6396 27.5212 34.6396 23.1948H29.6952C29.6952 26.6147 28.4896 29.5303 26.0783 31.9415C23.6671 34.3528 20.7524 35.5576 17.3341 35.5559C13.9158 35.5543 11.0003 34.3487 8.58737 31.9391C6.17448 29.5295 4.96969 26.6147 4.97298 23.1948H0.0285378C0.0285378 27.5212 1.42947 31.312 4.23132 34.567C7.03317 37.8221 10.5767 39.7381 14.8619 40.315V47.917H19.8063Z" fill="url(#paint0_linear_113_838)"/>
<defs>
<linearGradient id="paint0_linear_113_838" x1="17.3341" y1="0.944824" x2="17.3341" y2="47.917" gradientUnits="userSpaceOnUse">
<stop offset="0.455" stop-color="white"/>
<stop offset="1" stop-color="#999999"/>
</linearGradient>
</defs>
</svg>
