<svg width="16" height="16" viewBox="0 0 16 16" fill="none" xmlns="http://www.w3.org/2000/svg">
<path fill-rule="evenodd" clip-rule="evenodd" d="M7.99984 2.00008C4.68613 2.00008 1.99984 4.68637 1.99984 8.00008C1.99984 11.3138 4.68613 14.0001 7.99984 14.0001C11.3135 14.0001 13.9998 11.3138 13.9998 8.00008C13.9998 4.68637 11.3135 2.00008 7.99984 2.00008ZM0.666504 8.00008C0.666504 3.94999 3.94975 0.666748 7.99984 0.666748C12.0499 0.666748 15.3332 3.94999 15.3332 8.00008C15.3332 12.0502 12.0499 15.3334 7.99984 15.3334C3.94975 15.3334 0.666504 12.0502 0.666504 8.00008Z" fill="#848484"/>
<path fill-rule="evenodd" clip-rule="evenodd" d="M5.85156 6.37036C5.85156 5.26579 6.74699 4.37036 7.85156 4.37036H8.14786C9.25243 4.37036 10.1479 5.26579 10.1479 6.37036V6.51851H8.81453V6.37036C8.81453 6.00217 8.51605 5.70369 8.14786 5.70369H7.85156C7.48337 5.70369 7.1849 6.00217 7.1849 6.37036V6.43521C7.1849 6.68772 7.32756 6.91856 7.55342 7.03149L9.04229 7.77592C9.71985 8.11471 10.1479 8.80723 10.1479 9.56478V9.62962C10.1479 10.7342 9.25243 11.6296 8.14786 11.6296H7.85156C6.74699 11.6296 5.85156 10.7342 5.85156 9.62962V9.48147H7.1849V9.62962C7.1849 9.99781 7.48337 10.2963 7.85156 10.2963H8.14786C8.51605 10.2963 8.81453 9.99781 8.81453 9.62962V9.56478C8.81453 9.31226 8.67186 9.08142 8.446 8.96849L6.95714 8.22406C6.27957 7.88528 5.85156 7.19275 5.85156 6.43521V6.37036Z" fill="#848484"/>
<path fill-rule="evenodd" clip-rule="evenodd" d="M8.66634 3.55566V5.03715H7.33301V3.55566H8.66634Z" fill="#848484"/>
<path fill-rule="evenodd" clip-rule="evenodd" d="M8.66634 10.9631V12.4446H7.33301V10.9631H8.66634Z" fill="#848484"/>
</svg>
