<svg width="25" height="25" viewBox="0 0 25 25" fill="none" xmlns="http://www.w3.org/2000/svg">
<rect width="25" height="25" rx="5" fill="#0082A9"/>
<rect width="25" height="25" rx="5" fill="#0C7FDA"/>
<path d="M15.2478 10.344C14.9598 9.78933 14.5598 9.37333 14.0478 9.096C13.5358 8.808 12.9438 8.664 12.2718 8.664C11.5358 8.664 10.8798 8.82933 10.3038 9.16C9.7278 9.49067 9.27446 9.96 8.9438 10.568C8.6238 11.176 8.4638 11.88 8.4638 12.68C8.4638 13.48 8.6238 14.1893 8.9438 14.808C9.27446 15.416 9.7278 15.8853 10.3038 16.216C10.8798 16.5467 11.5358 16.712 12.2718 16.712C13.2638 16.712 14.0691 16.4347 14.6878 15.88C15.3065 15.3253 15.6851 14.5733 15.8238 13.624H11.6478V12.168H17.7758V13.592C17.6585 14.456 17.3491 15.2507 16.8478 15.976C16.3571 16.7013 15.7118 17.2827 14.9118 17.72C14.1225 18.1467 13.2425 18.36 12.2718 18.36C11.2265 18.36 10.2718 18.12 9.4078 17.64C8.5438 17.1493 7.8558 16.472 7.3438 15.608C6.84246 14.744 6.5918 13.768 6.5918 12.68C6.5918 11.592 6.84246 10.616 7.3438 9.752C7.8558 8.888 8.5438 8.216 9.4078 7.736C10.2825 7.24533 11.2371 7 12.2718 7C13.4558 7 14.5065 7.29333 15.4238 7.88C16.3518 8.456 17.0238 9.27733 17.4398 10.344H15.2478Z" fill="white"/>
</svg>
